<svg viewBox="0 0 96 96" xmlns="http://www.w3.org/2000/svg" xmlns:xlink="http://www.w3.org/1999/xlink" id="Icons_WorkFromHomeHouse_M" overflow="hidden"><g id="Icons"><path d="M89.4374 49.958 48.0068 10.5972 6.5722 49.958 13.0605 56.4458 18.0048 51.7638 18.0048 83.9761 78.0048 84.0005 78.0048 51.7225 82.9735 56.4214ZM76.0048 82 20.0048 81.9776 20.0048 49.87 48.0068 23.3536 76.0048 49.8312ZM48.0068 20.6 13.0976 53.6558 9.4376 49.9951 48.0068 13.356 86.5722 49.9946 82.9345 53.6323Z" fill="#FF0000"/><path d="M42.0107 49.7959 42.0107 51 34.512 51C33.6846 51.0025 33.0145 51.6726 33.012 52.5L33.012 70.8484C33.0145 71.6758 33.6846 72.3459 34.512 72.3484L61.5111 72.3484C62.3385 72.3459 63.0086 71.6758 63.0111 70.8484L63.0111 52.5C63.0086 51.6726 62.3385 51.0025 61.5111 51L54.0911 51 54.0911 49.7959C54.0893 48.1398 52.7472 46.7977 51.0911 46.7959L45.0111 46.7959C43.3548 46.7975 42.0125 48.1396 42.0107 49.7959ZM35.0121 70.3487 35.0121 61 44.82 61C45.1017 62.5001 46.4104 63.588 47.9367 63.5908L48.0867 63.5908C49.6131 63.588 50.9218 62.5002 51.2035 61L61.0111 61 61.0111 70.3487ZM46.7607 60.4155 46.7607 59.4663 49.2626 59.4663 49.2626 60.4155C49.2618 61.0645 48.7358 61.5902 48.0868 61.5908L47.9368 61.5908C47.2877 61.5904 46.7615 61.0646 46.7607 60.4155ZM61.0111 59 51.2626 59 51.2626 57.4663 44.7607 57.4663 44.7607 59 35.0121 59 35.0121 53 61.0111 53ZM52.0911 49.7959 52.0911 51 44.0111 51 44.0111 49.7959C44.0116 49.2438 44.459 48.7964 45.0111 48.7959L51.0911 48.7959C51.643 48.7966 52.0902 49.244 52.0907 49.7959Z" fill="#FF0000"/></g></svg>